<svg width="388" height="33" viewBox="0 0 388 33" fill="none" xmlns="http://www.w3.org/2000/svg">
<rect width="388" height="33" rx="4" fill="url(#paint0_linear_387_3488)"/>
<path d="M10.8487 11.8182V22H9.00426V11.8182H10.8487ZM12.8461 22V11.8182H16.6642C17.4464 11.8182 18.1027 11.964 18.633 12.2557C19.1666 12.5473 19.5693 12.9484 19.8411 13.4588C20.1162 13.9659 20.2537 14.5426 20.2537 15.1889C20.2537 15.8419 20.1162 16.4219 19.8411 16.929C19.566 17.4361 19.16 17.8355 18.623 18.1271C18.0861 18.4155 17.4249 18.5597 16.6394 18.5597H14.1088V17.0433H16.3908C16.8482 17.0433 17.2227 16.9638 17.5144 16.8047C17.806 16.6456 18.0215 16.4268 18.1607 16.1484C18.3032 15.87 18.3745 15.5502 18.3745 15.1889C18.3745 14.8277 18.3032 14.5095 18.1607 14.2344C18.0215 13.9593 17.8044 13.7455 17.5094 13.593C17.2177 13.4373 16.8416 13.3594 16.3809 13.3594H14.6905V22H12.8461ZM21.8558 22V11.8182H23.7003V16.1286H28.4183V11.8182H30.2678V22H28.4183V17.6747H23.7003V22H21.8558ZM41.3718 16.9091C41.3718 18.0062 41.1663 18.9458 40.7553 19.728C40.3477 20.5069 39.7908 21.1035 39.0849 21.5178C38.3822 21.9321 37.5851 22.1392 36.6935 22.1392C35.802 22.1392 35.0032 21.9321 34.2972 21.5178C33.5946 21.1001 33.0378 20.5019 32.6268 19.723C32.2191 18.9408 32.0153 18.0028 32.0153 16.9091C32.0153 15.812 32.2191 14.8741 32.6268 14.0952C33.0378 13.313 33.5946 12.7147 34.2972 12.3004C35.0032 11.8861 35.802 11.679 36.6935 11.679C37.5851 11.679 38.3822 11.8861 39.0849 12.3004C39.7908 12.7147 40.3477 13.313 40.7553 14.0952C41.1663 14.8741 41.3718 15.812 41.3718 16.9091ZM39.5174 16.9091C39.5174 16.1368 39.3964 15.4856 39.1545 14.9553C38.9158 14.4216 38.5844 14.0189 38.1602 13.7472C37.7359 13.4721 37.247 13.3345 36.6935 13.3345C36.14 13.3345 35.6512 13.4721 35.2269 13.7472C34.8027 14.0189 34.4696 14.4216 34.2276 14.9553C33.989 15.4856 33.8697 16.1368 33.8697 16.9091C33.8697 17.6813 33.989 18.3343 34.2276 18.8679C34.4696 19.3982 34.8027 19.8009 35.2269 20.076C35.6512 20.3478 36.14 20.4837 36.6935 20.4837C37.247 20.4837 37.7359 20.3478 38.1602 20.076C38.5844 19.8009 38.9158 19.3982 39.1545 18.8679C39.3964 18.3343 39.5174 17.6813 39.5174 16.9091ZM51.4828 11.8182V22H49.8422L45.0446 15.0646H44.96V22H43.1156V11.8182H44.7662L49.5588 18.7585H49.6483V11.8182H51.4828ZM53.4925 22V11.8182H60.1147V13.3643H55.337V16.1286H59.7717V17.6747H55.337V20.4538H60.1545V22H53.4925Z" fill="#131313"/>
<path d="M359.504 13.1155V20.3882H358.403V14.2163H358.36L356.62 15.3527V14.3015L358.435 13.1155H359.504ZM361.471 20.3882V19.5927L363.932 17.043C364.195 16.766 364.411 16.5234 364.582 16.315C364.755 16.1043 364.884 15.9043 364.969 15.7149C365.054 15.5255 365.097 15.3243 365.097 15.1112C365.097 14.8697 365.04 14.6614 364.926 14.4862C364.813 14.3086 364.658 14.1725 364.461 14.0778C364.265 13.9807 364.043 13.9322 363.797 13.9322C363.537 13.9322 363.309 13.9855 363.115 14.092C362.921 14.1986 362.772 14.3489 362.668 14.543C362.564 14.7371 362.512 14.9644 362.512 15.2248H361.464C361.464 14.7821 361.566 14.395 361.769 14.0636C361.973 13.7322 362.252 13.4753 362.607 13.293C362.963 13.1084 363.366 13.016 363.818 13.016C364.275 13.016 364.678 13.1072 365.026 13.2895C365.376 13.4694 365.65 13.7156 365.846 14.0281C366.043 14.3382 366.141 14.6886 366.141 15.0792C366.141 15.3491 366.09 15.6131 365.988 15.8711C365.889 16.1292 365.715 16.4168 365.466 16.7341C365.218 17.0489 364.872 17.4313 364.429 17.8811L362.984 19.3939V19.4471H366.258V20.3882H361.471ZM370.136 20.5089C369.575 20.5066 369.095 20.3586 368.698 20.065C368.3 19.7715 367.996 19.3441 367.785 18.7831C367.574 18.222 367.469 17.5461 367.469 16.7554C367.469 15.967 367.574 15.2935 367.785 14.7348C367.998 14.1761 368.303 13.7499 368.701 13.4564C369.101 13.1628 369.579 13.016 370.136 13.016C370.692 13.016 371.169 13.164 371.567 13.4599C371.965 13.7535 372.269 14.1796 372.48 14.7383C372.693 15.2947 372.799 15.967 372.799 16.7554C372.799 17.5485 372.694 18.2255 372.483 18.7866C372.272 19.3453 371.968 19.7727 371.57 20.0686C371.173 20.3621 370.695 20.5089 370.136 20.5089ZM370.136 19.5608C370.628 19.5608 371.013 19.3205 371.29 18.8399C371.569 18.3593 371.709 17.6645 371.709 16.7554C371.709 16.1517 371.645 15.6415 371.517 15.2248C371.392 14.8058 371.211 14.4886 370.974 14.2731C370.74 14.0553 370.46 13.9464 370.136 13.9464C369.646 13.9464 369.261 14.1879 368.982 14.6709C368.702 15.1538 368.561 15.8486 368.559 16.7554C368.559 17.3614 368.622 17.874 368.747 18.293C368.875 18.7097 369.056 19.0257 369.291 19.2412C369.525 19.4542 369.807 19.5608 370.136 19.5608ZM374.158 20.3882V13.1155H375.256V16.5885H375.344L378.395 13.1155H379.776L376.843 16.3896L379.787 20.3882H378.466L376.115 17.1389L375.256 18.1261V20.3882H374.158Z" fill="#131313"/>
<defs>
<linearGradient id="paint0_linear_387_3488" x1="-9.98529" y1="16.373" x2="436.5" y2="16.373" gradientUnits="userSpaceOnUse">
<stop stop-color="#C0E5C0"/>
<stop offset="1" stop-color="white"/>
</linearGradient>
</defs>
</svg>
