<svg width="35" height="35" viewBox="0 0 35 35" fill="none" xmlns="http://www.w3.org/2000/svg">
<path d="M25.1562 2.1875H9.84375C8.03157 2.1875 6.5625 3.65657 6.5625 5.46875V29.5312C6.5625 31.3434 8.03157 32.8125 9.84375 32.8125H25.1562C26.9684 32.8125 28.4375 31.3434 28.4375 29.5312V5.46875C28.4375 3.65657 26.9684 2.1875 25.1562 2.1875Z" stroke="#58B310" stroke-width="2.1875" stroke-linejoin="round"/>
<path d="M14.2188 5.46875H20.7812" stroke="#58B310" stroke-width="2.1875" stroke-linecap="round" stroke-linejoin="round"/>
<path d="M22.7959 19.4487C22.5379 19.1739 22.2255 18.9559 21.8785 18.8086C21.5315 18.6614 21.1576 18.5881 20.7807 18.5935C19.9877 18.5935 19.2706 18.895 18.7614 19.4432C18.2521 19.9915 17.9957 20.7503 18.0545 21.5624C18.1714 23.1675 19.3944 24.4724 20.7807 24.4724C22.167 24.4724 23.3879 23.1675 23.5062 21.5638C23.5663 20.7585 23.3134 20.0072 22.7959 19.4487ZM25.4079 30.6248H16.1534C16.033 30.6267 15.9135 30.6022 15.8036 30.5529C15.6936 30.5037 15.5958 30.4309 15.517 30.3397C15.4316 30.2374 15.3703 30.1172 15.3376 29.988C15.305 29.8588 15.3018 29.7239 15.3283 29.5932C15.5505 28.3929 16.243 27.3846 17.3313 26.677C18.2979 26.0488 19.5229 25.7029 20.7807 25.7029C22.0385 25.7029 23.2635 26.0488 24.2301 26.677C25.3184 27.3846 26.0109 28.3929 26.233 29.5932C26.2596 29.7239 26.2564 29.8588 26.2237 29.988C26.1911 30.1172 26.1298 30.2374 26.0444 30.3397C25.9656 30.4309 25.8678 30.5037 25.7578 30.5529C25.6478 30.6022 25.5284 30.6267 25.4079 30.6248Z" fill="#58B310"/>
</svg>
