<svg width="25" height="30" viewBox="0 0 25 30" fill="none" xmlns="http://www.w3.org/2000/svg">
<path d="M18.5493 0.924369C18.4843 0.856917 16.1426 0.950995 14.1048 3.00473C12.067 5.05668 12.3805 7.4104 12.4264 7.47075C12.4723 7.5311 15.3321 7.62518 17.1576 5.23774C18.9832 2.8503 18.6143 0.993596 18.5493 0.924369ZM24.8843 21.751C24.7926 21.5806 20.4399 19.5606 20.8451 15.6768C21.2504 11.7912 24.0471 10.7262 24.091 10.6108C24.135 10.4954 22.9498 9.20852 21.6939 8.55708C20.7717 8.09779 19.7512 7.83465 18.706 7.78671C18.4996 7.78138 17.7827 7.61808 16.3089 7.99261C15.3378 8.23935 13.149 9.03812 12.5468 9.07007C11.9428 9.10202 10.1459 8.14349 8.21323 7.88966C6.97642 7.66778 5.66506 8.12219 4.72646 8.47188C3.78978 8.81979 2.00816 9.81026 0.761793 12.4427C-0.484574 15.0733 0.167284 19.2411 0.633716 20.5369C1.10015 21.8309 1.82847 23.9521 3.06719 25.4999C4.16827 27.2466 5.62874 28.4589 6.23854 28.8707C6.84835 29.2826 8.56879 29.5559 9.76163 28.9897C10.7213 28.443 12.4532 28.1288 13.1375 28.1518C13.82 28.1749 15.1657 28.4252 16.544 29.1086C17.6355 29.4583 18.6678 29.3127 19.702 28.9222C20.7362 28.5299 22.2329 27.0424 23.9802 24.0266C24.6435 22.6243 24.9455 21.8664 24.8843 21.751Z" fill="black"/>
</svg>
