<svg width="85" height="79" viewBox="0 0 85 79" fill="none" xmlns="http://www.w3.org/2000/svg">
<rect width="85" height="79" fill="white"/>
<path d="M14.7666 38.3084V56.0291L42.4872 60.8695V22.25" stroke="#58B310" stroke-width="3" stroke-linecap="round" stroke-linejoin="round"/>
<path d="M70.0574 38.7773V55.7195L42.4873 60.8694" stroke="#58B310" stroke-width="3" stroke-linecap="round" stroke-linejoin="round"/>
<path d="M19.3094 50.4677L24.5175 50.9828M50.956 36.3316L74.6604 39.3666C75.0282 39.414 75.403 39.3691 75.746 39.2366C76.0889 39.1041 76.3875 38.8888 76.6107 38.613C76.834 38.3372 76.9738 38.0109 77.0157 37.6679C77.0576 37.3249 77.0001 36.9778 76.8491 36.6625L70.058 22.4556L42.4861 18.1304L14.769 22.663L8.16382 35.856C8.01058 36.1615 7.94582 36.4988 7.97595 36.8347C8.00608 37.1706 8.13005 37.4933 8.3356 37.771C8.54115 38.0486 8.82115 38.2716 9.14789 38.4178C9.47463 38.564 9.83678 38.6284 10.1985 38.6045L33.8179 37.0789C34.2883 37.0487 34.7411 36.9003 35.1278 36.6495C35.5146 36.3988 35.8208 36.0551 36.0137 35.6552L42.4861 22.2515L48.955 34.9689C49.14 35.3326 49.4197 35.6477 49.7688 35.8857C50.1179 36.1236 50.5271 36.2769 50.956 36.3316Z" stroke="#58B310" stroke-width="3" stroke-linecap="round" stroke-linejoin="round"/>
</svg>
