<svg width="35" height="35" viewBox="0 0 35 35" fill="none" xmlns="http://www.w3.org/2000/svg">
<path d="M26.8853 7.22627H24.0561V5.17002C24.0561 4.79085 23.7207 4.42627 23.327 4.44085C22.9332 4.45544 22.5978 4.76169 22.5978 5.17002V7.22627H12.3895V5.17002C12.3895 4.79085 12.054 4.42627 11.6603 4.44085C11.2665 4.45544 10.9311 4.76169 10.9311 5.17002V7.22627H8.11654C7.1496 7.22627 6.22227 7.61038 5.53854 8.29411C4.85482 8.97784 4.4707 9.90517 4.4707 10.8721V26.9138C4.4707 27.8807 4.85482 28.808 5.53854 29.4918C6.22227 30.1755 7.1496 30.5596 8.11654 30.5596H26.8853C27.8522 30.5596 28.7796 30.1755 29.4633 29.4918C30.147 28.808 30.5311 27.8807 30.5311 26.9138V10.8721C30.5311 9.90517 30.147 8.97784 29.4633 8.29411C28.7796 7.61038 27.8522 7.22627 26.8853 7.22627ZM29.0728 26.9138C29.0728 28.1242 28.0957 29.1013 26.8853 29.1013H8.11654C6.90612 29.1013 5.92904 28.1242 5.92904 26.9138V14.6346H29.0728V26.9138ZM29.0728 13.1763H5.92904V10.8721C5.92904 9.66169 6.90612 8.6846 8.11654 8.6846H10.9311V9.54502C10.9311 9.92419 11.2665 10.2888 11.6603 10.2742C12.054 10.2596 12.3895 9.95335 12.3895 9.54502V8.6846H22.5978V9.54502C22.5978 9.92419 22.9332 10.2888 23.327 10.2742C23.7207 10.2596 24.0561 9.95335 24.0561 9.54502V8.6846H26.8853C28.0957 8.6846 29.0728 9.66169 29.0728 10.8721V13.1763Z" fill="#58B310"/>
<path d="M16.7592 25.0438V19.998C16.7592 19.9786 16.754 19.9595 16.7442 19.9428C16.7344 19.926 16.7203 19.9122 16.7034 19.9027C16.6865 19.8932 16.6673 19.8884 16.6479 19.8887C16.6285 19.8891 16.6096 19.8946 16.593 19.9047L15.6626 20.4763C15.6294 20.4965 15.5915 20.5075 15.5527 20.5082C15.5139 20.5089 15.4756 20.4992 15.4417 20.4802C15.4079 20.4612 15.3797 20.4336 15.3601 20.4001C15.3405 20.3666 15.3301 20.3285 15.3301 20.2897V19.3403C15.3301 19.1872 15.4103 19.0442 15.543 18.9655L16.6572 18.299C16.725 18.2582 16.8026 18.2365 16.8817 18.2363H17.7947C17.8521 18.2363 17.909 18.2476 17.9621 18.2696C18.0152 18.2916 18.0634 18.3238 18.104 18.3645C18.1446 18.4051 18.1769 18.4533 18.1989 18.5064C18.2208 18.5595 18.2322 18.6164 18.2322 18.6738V25.0424C18.2322 25.1584 18.1861 25.2697 18.104 25.3517C18.022 25.4338 17.9107 25.4799 17.7947 25.4799H17.1982C17.1406 25.4804 17.0835 25.4696 17.0302 25.4479C16.9769 25.4262 16.9284 25.3942 16.8876 25.3536C16.8467 25.3131 16.8143 25.2648 16.7923 25.2116C16.7703 25.1584 16.759 25.1014 16.7592 25.0438Z" fill="#58B310"/>
</svg>
