<svg width="28" height="28" viewBox="0 0 28 28" fill="none" xmlns="http://www.w3.org/2000/svg">
<path d="M10.9537 7.01183C11.1637 7.3035 11.3154 7.57183 11.4204 7.8285C11.5254 8.0735 11.5837 8.3185 11.5837 8.54016C11.5837 8.82016 11.502 9.10016 11.3387 9.3685C11.187 9.63683 10.9654 9.91683 10.6854 10.1968L9.7987 11.1185C9.67036 11.2468 9.61203 11.3985 9.61203 11.5852C9.61203 11.6785 9.6237 11.7602 9.64703 11.8535C9.68203 11.9468 9.71703 12.0168 9.74036 12.0868C9.95036 12.4718 10.312 12.9735 10.8254 13.5802C11.3504 14.1868 11.9104 14.8052 12.517 15.4235C13.147 16.0418 13.7537 16.6135 14.372 17.1385C14.9787 17.6518 15.4804 18.0018 15.877 18.2118C15.9354 18.2352 16.0054 18.2702 16.087 18.3052C16.1804 18.3402 16.2737 18.3518 16.3787 18.3518C16.577 18.3518 16.7287 18.2818 16.857 18.1535L17.7437 17.2785C18.0354 16.9868 18.3154 16.7652 18.5837 16.6252C18.852 16.4618 19.1204 16.3802 19.412 16.3802C19.6337 16.3802 19.867 16.4268 20.1237 16.5318C20.3804 16.6368 20.6487 16.7885 20.9404 16.9868L24.802 19.7285C25.1054 19.9385 25.3154 20.1835 25.4437 20.4752C25.5604 20.7668 25.6304 21.0585 25.6304 21.3852C25.6304 21.8052 25.537 22.2368 25.3387 22.6568C25.1404 23.0768 24.8837 23.4735 24.5454 23.8468C23.9737 24.4768 23.3437 24.9318 22.632 25.2235C21.932 25.5152 21.1737 25.6668 20.357 25.6668C19.167 25.6668 17.8954 25.3868 16.5537 24.8152C15.212 24.2435 13.8704 23.4735 12.5404 22.5052C11.1987 21.5252 9.92703 20.4402 8.7137 19.2385C7.51203 18.0252 6.42703 16.7535 5.4587 15.4235C4.50203 14.0935 3.73203 12.7635 3.17203 11.4452C2.61203 10.1152 2.33203 8.8435 2.33203 7.63016C2.33203 6.83683 2.47203 6.0785 2.75203 5.3785C3.03203 4.66683 3.47536 4.0135 4.0937 3.43016C4.84036 2.69516 5.65703 2.3335 6.52036 2.3335C6.84703 2.3335 7.1737 2.4035 7.46536 2.5435C7.7687 2.6835 8.03703 2.8935 8.24703 3.19683" stroke="#58B310" stroke-width="1.5" stroke-miterlimit="10" stroke-linecap="round" stroke-linejoin="round"/>
<path d="M21.5833 10.4998C21.5833 9.79984 21.035 8.7265 20.2183 7.8515C19.4717 7.0465 18.48 6.4165 17.5 6.4165" stroke="#58B310" stroke-width="1.5" stroke-linecap="round" stroke-linejoin="round"/>
<path d="M19.845 2.67183C19.0983 2.45016 18.3167 2.3335 17.5 2.3335" stroke="#58B310" stroke-width="1.5" stroke-linecap="round" stroke-linejoin="round"/>
<path d="M25.6681 10.4999C25.6681 7.73494 24.2914 5.28494 22.1914 3.81494" stroke="#58B310" stroke-width="1.5" stroke-linecap="round" stroke-linejoin="round"/>
</svg>
