<svg width="29" height="26" viewBox="0 0 29 26" fill="none" xmlns="http://www.w3.org/2000/svg">
<path d="M25.1562 3.28125H21.3664L19.5029 0.486719C19.4031 0.337082 19.2679 0.214379 19.1093 0.12948C18.9507 0.0445815 18.7736 0.000108015 18.5938 0H9.84375C9.66387 0.000108015 9.48679 0.0445815 9.3282 0.12948C9.16961 0.214379 9.03441 0.337082 8.93457 0.486719L7.06973 3.28125H3.28125C2.41101 3.28125 1.57641 3.62695 0.961056 4.24231C0.345702 4.85766 0 5.69226 0 6.5625V21.875C0 22.7452 0.345702 23.5798 0.961056 24.1952C1.57641 24.8105 2.41101 25.1562 3.28125 25.1562H25.1562C26.0265 25.1562 26.8611 24.8105 27.4764 24.1952C28.0918 23.5798 28.4375 22.7452 28.4375 21.875V6.5625C28.4375 5.69226 28.0918 4.85766 27.4764 4.24231C26.8611 3.62695 26.0265 3.28125 25.1562 3.28125ZM26.25 21.875C26.25 22.1651 26.1348 22.4433 25.9296 22.6484C25.7245 22.8535 25.4463 22.9688 25.1562 22.9688H3.28125C2.99117 22.9688 2.71297 22.8535 2.50785 22.6484C2.30273 22.4433 2.1875 22.1651 2.1875 21.875V6.5625C2.1875 6.27242 2.30273 5.99422 2.50785 5.7891C2.71297 5.58398 2.99117 5.46875 3.28125 5.46875H7.65625C7.83637 5.46887 8.01372 5.4245 8.17257 5.33959C8.33141 5.25468 8.46683 5.13186 8.5668 4.98203L10.4289 2.1875H18.0072L19.8707 4.98203C19.9707 5.13186 20.1061 5.25468 20.2649 5.33959C20.4238 5.4245 20.6011 5.46887 20.7812 5.46875H25.1562C25.4463 5.46875 25.7245 5.58398 25.9296 5.7891C26.1348 5.99422 26.25 6.27242 26.25 6.5625V21.875ZM14.2188 7.65625C13.029 7.65625 11.8659 8.00906 10.8766 8.67007C9.88738 9.33107 9.11635 10.2706 8.66104 11.3698C8.20573 12.469 8.0866 13.6785 8.31871 14.8455C8.55083 16.0124 9.12376 17.0843 9.96506 17.9256C10.8064 18.7669 11.8782 19.3398 13.0452 19.5719C14.2121 19.804 15.4216 19.6849 16.5208 19.2296C17.62 18.7743 18.5596 18.0032 19.2206 17.014C19.8816 16.0247 20.2344 14.8617 20.2344 13.6719C20.2326 12.077 19.5982 10.5479 18.4704 9.42018C17.3427 8.29243 15.8136 7.65806 14.2188 7.65625ZM14.2188 17.5C13.4616 17.5 12.7215 17.2755 12.092 16.8548C11.4624 16.4342 10.9718 15.8363 10.682 15.1368C10.3923 14.4373 10.3165 13.6676 10.4642 12.925C10.6119 12.1825 10.9765 11.5004 11.5119 10.965C12.0472 10.4296 12.7293 10.065 13.4719 9.91731C14.2145 9.7696 14.9842 9.84541 15.6837 10.1351C16.3832 10.4249 16.9811 10.9156 17.4017 11.5451C17.8224 12.1746 18.0469 12.9147 18.0469 13.6719C18.0469 14.6872 17.6436 15.6609 16.9256 16.3788C16.2077 17.0967 15.234 17.5 14.2188 17.5Z" fill="white"/>
</svg>
