<svg width="13" height="10" viewBox="0 0 13 10" fill="none" xmlns="http://www.w3.org/2000/svg">
<path d="M12.1932 0.615234H8.72289V1.83318H10.5027L6.73984 6.4553L4.61301 3.83671C4.56693 3.77963 4.5121 3.73433 4.45168 3.70341C4.39127 3.67249 4.32647 3.65658 4.26102 3.65658C4.19558 3.65658 4.13078 3.67249 4.07036 3.70341C4.00995 3.73433 3.95512 3.77963 3.90903 3.83671L0.294922 8.28222L0.993947 9.14088L4.26102 5.12773L6.38785 7.74632C6.43393 7.8034 6.48876 7.84871 6.54918 7.87962C6.60959 7.91054 6.67439 7.92646 6.73984 7.92646C6.80528 7.92646 6.87008 7.91054 6.9305 7.87962C6.99091 7.84871 7.04574 7.8034 7.09183 7.74632L11.2017 2.69184V4.87805H12.1932V0.615234Z" fill="#848484"/>
</svg>
