<svg width="24" height="24" viewBox="0 0 24 24" fill="none" xmlns="http://www.w3.org/2000/svg">
<path d="M16.9609 6.16992C18.9609 7.55992 20.3409 9.76992 20.6209 12.3199" stroke="#58B310" stroke-width="1.5" stroke-linecap="round" stroke-linejoin="round"/>
<path d="M3.48828 12.3702C3.74828 9.83021 5.10828 7.62021 7.08828 6.22021" stroke="#58B310" stroke-width="1.5" stroke-linecap="round" stroke-linejoin="round"/>
<path d="M8.19141 20.9399C9.35141 21.5299 10.6714 21.8599 12.0614 21.8599C13.4014 21.8599 14.6614 21.5599 15.7914 21.0099" stroke="#58B310" stroke-width="1.5" stroke-linecap="round" stroke-linejoin="round"/>
<path d="M12.0613 7.70014C13.5966 7.70014 14.8413 6.45549 14.8413 4.92014C14.8413 3.38479 13.5966 2.14014 12.0613 2.14014C10.5259 2.14014 9.28125 3.38479 9.28125 4.92014C9.28125 6.45549 10.5259 7.70014 12.0613 7.70014Z" stroke="#58B310" stroke-width="1.5" stroke-linecap="round" stroke-linejoin="round"/>
<path d="M4.83078 19.9199C6.36613 19.9199 7.61078 18.6752 7.61078 17.1399C7.61078 15.6045 6.36613 14.3599 4.83078 14.3599C3.29543 14.3599 2.05078 15.6045 2.05078 17.1399C2.05078 18.6752 3.29543 19.9199 4.83078 19.9199Z" stroke="#58B310" stroke-width="1.5" stroke-linecap="round" stroke-linejoin="round"/>
<path d="M19.1706 19.9199C20.706 19.9199 21.9506 18.6752 21.9506 17.1399C21.9506 15.6045 20.706 14.3599 19.1706 14.3599C17.6353 14.3599 16.3906 15.6045 16.3906 17.1399C16.3906 18.6752 17.6353 19.9199 19.1706 19.9199Z" stroke="#58B310" stroke-width="1.5" stroke-linecap="round" stroke-linejoin="round"/>
</svg>
