<svg width="18" height="18" viewBox="0 0 18 18" fill="none" xmlns="http://www.w3.org/2000/svg">
<path d="M13.1351 0.426772C13.4086 0.153504 13.7794 0 14.166 0C14.5526 0 14.9233 0.153504 15.1968 0.426772L17.3518 2.58177C17.6251 2.85523 17.7786 3.22601 17.7786 3.61261C17.7786 3.9992 17.6251 4.36998 17.3518 4.64344L15.0243 6.97094L15.0143 6.98177L5.99097 15.5943C5.82607 15.7518 5.62658 15.8685 5.40847 15.9351L0.805974 17.3351C0.697761 17.3679 0.582663 17.3707 0.473007 17.3431C0.363351 17.3155 0.263267 17.2586 0.183474 17.1784C0.103354 17.0986 0.0464475 16.9986 0.0188499 16.8889C-0.00874763 16.7792 -0.00599696 16.6642 0.0268074 16.5559L1.42097 11.9726C1.49409 11.7327 1.62784 11.5157 1.80931 11.3426L10.8126 2.74844L13.1351 0.426772ZM2.67264 12.2468C2.64687 12.2717 2.62769 12.3026 2.61681 12.3368L1.56347 15.7984L5.04431 14.7393C5.07552 14.7296 5.10405 14.7127 5.12764 14.6901L13.6885 6.51844L11.2385 4.06927L2.67264 12.2468ZM14.5826 5.64594L16.4685 3.76094C16.4879 3.74159 16.5033 3.7186 16.5138 3.69329C16.5243 3.66798 16.5297 3.64084 16.5297 3.61344C16.5297 3.58604 16.5243 3.5589 16.5138 3.53359C16.5033 3.50828 16.4879 3.48529 16.4685 3.46594L14.3135 1.31094C14.2941 1.29154 14.2711 1.27614 14.2458 1.26564C14.2205 1.25514 14.1934 1.24973 14.166 1.24973C14.1386 1.24973 14.1114 1.25514 14.0861 1.26564C14.0608 1.27614 14.0378 1.29154 14.0185 1.31094L12.1335 3.19594L14.5826 5.64594Z" fill="#58B310"/>
</svg>
