<svg width="68" height="68" viewBox="0 0 68 68" fill="none" xmlns="http://www.w3.org/2000/svg">
<g filter="url(#filter0_d_411_5737)">
<circle cx="35" cy="29" r="15" fill="#58B310"/>
</g>
<path d="M39.1351 20.4268C39.4086 20.1535 39.7794 20 40.166 20C40.5526 20 40.9233 20.1535 41.1968 20.4268L43.3518 22.5818C43.6251 22.8552 43.7786 23.226 43.7786 23.6126C43.7786 23.9992 43.6251 24.37 43.3518 24.6434L41.0243 26.9709L41.0143 26.9818L31.991 35.5943C31.8261 35.7518 31.6266 35.8685 31.4085 35.9351L26.806 37.3351C26.6978 37.3679 26.5827 37.3707 26.473 37.3431C26.3634 37.3155 26.2633 37.2586 26.1835 37.1784C26.1034 37.0986 26.0464 36.9986 26.0188 36.8889C25.9913 36.7792 25.994 36.6642 26.0268 36.5559L27.421 31.9726C27.4941 31.7327 27.6278 31.5157 27.8093 31.3426L36.8126 22.7484L39.1351 20.4268ZM28.6726 32.2468C28.6469 32.2717 28.6277 32.3026 28.6168 32.3368L27.5635 35.7984L31.0443 34.7393C31.0755 34.7296 31.1041 34.7127 31.1276 34.6901L39.6885 26.5184L37.2385 24.0693L28.6726 32.2468ZM40.5826 25.6459L42.4685 23.7609C42.4879 23.7416 42.5033 23.7186 42.5138 23.6933C42.5243 23.668 42.5297 23.6408 42.5297 23.6134C42.5297 23.586 42.5243 23.5589 42.5138 23.5336C42.5033 23.5083 42.4879 23.4853 42.4685 23.4659L40.3135 21.3109C40.2941 21.2915 40.2711 21.2761 40.2458 21.2656C40.2205 21.2551 40.1934 21.2497 40.166 21.2497C40.1386 21.2497 40.1114 21.2551 40.0861 21.2656C40.0608 21.2761 40.0378 21.2915 40.0185 21.3109L38.1335 23.1959L40.5826 25.6459Z" fill="white"/>
<defs>
<filter id="filter0_d_411_5737" x="0.5" y="0.5" width="67" height="67" filterUnits="userSpaceOnUse" color-interpolation-filters="sRGB">
<feFlood flood-opacity="0" result="BackgroundImageFix"/>
<feColorMatrix in="SourceAlpha" type="matrix" values="0 0 0 0 0 0 0 0 0 0 0 0 0 0 0 0 0 0 127 0" result="hardAlpha"/>
<feOffset dx="-1" dy="5"/>
<feGaussianBlur stdDeviation="9.25"/>
<feComposite in2="hardAlpha" operator="out"/>
<feColorMatrix type="matrix" values="0 0 0 0 0 0 0 0 0 0 0 0 0 0 0 0 0 0 0.07 0"/>
<feBlend mode="normal" in2="BackgroundImageFix" result="effect1_dropShadow_411_5737"/>
<feBlend mode="normal" in="SourceGraphic" in2="effect1_dropShadow_411_5737" result="shape"/>
</filter>
</defs>
</svg>
