<svg width="59" height="60" viewBox="0 0 59 60" fill="none" xmlns="http://www.w3.org/2000/svg">
<path d="M20.6115 6.19803L18.4964 6.84603C16.613 7.42361 14.9311 8.5363 13.6486 10.0531C12.3661 11.57 11.5364 13.4278 11.2571 15.408C10.3809 21.612 12.3397 28.866 17.0627 37.185C21.7738 45.483 26.9599 50.829 32.6682 53.169C34.5022 53.9207 36.51 54.1211 38.4528 53.7461C40.3956 53.3712 42.1916 52.4368 43.6274 51.054L45.2263 49.512C46.2646 48.5127 46.9107 47.1641 47.0448 45.7168C47.1788 44.2694 46.7915 42.8218 45.955 41.643L41.9548 36.003C41.4139 35.2416 40.6524 34.6714 39.7768 34.3722C38.9013 34.0731 37.9557 34.0601 37.0725 34.335L31.0221 36.216L30.8657 36.246C30.199 36.345 28.6591 34.878 26.7416 31.5C24.7356 27.966 24.3226 25.899 24.8743 25.365L27.9511 22.446C29.0763 21.3794 29.8449 19.9814 30.1491 18.448C30.4533 16.9146 30.2778 15.3229 29.6474 13.896L27.6945 9.48303C27.1072 8.15505 26.0652 7.08956 24.7625 6.48516C23.4599 5.88077 21.9827 5.77871 20.6115 6.19803ZM25.01 10.713L26.957 15.126C27.3361 15.9817 27.4422 16.9367 27.2602 17.8569C27.0781 18.777 26.6172 19.616 25.9422 20.256L22.8565 23.178C20.88 25.08 21.5349 28.326 24.1899 33C26.6856 37.398 28.963 39.57 31.4115 39.192L31.7773 39.114L37.9369 37.203C38.2313 37.1111 38.5466 37.1151 38.8387 37.2147C39.1307 37.3142 39.3848 37.5042 39.5653 37.758L43.5655 43.398C43.9843 43.9874 44.1784 44.7114 44.1117 45.4354C44.045 46.1594 43.7219 46.8341 43.2026 47.334L41.6008 48.876C40.5752 49.8631 39.2925 50.53 37.9051 50.7975C36.5178 51.065 35.0841 50.9218 33.7744 50.385C28.7653 48.333 24.0306 43.452 19.6203 35.685C15.1983 27.9 13.4076 21.279 14.1776 15.834C14.3769 14.4193 14.9695 13.092 15.8857 12.0083C16.8018 10.9246 18.0034 10.1296 19.3489 9.71703L21.4641 9.06903C22.1498 8.85947 22.8871 8.91072 23.5384 9.2132C24.1898 9.51569 24.7107 10.0488 25.0041 10.713" fill="#58B310"/>
</svg>
