<svg width="28" height="27" viewBox="0 0 28 27" fill="none" xmlns="http://www.w3.org/2000/svg">
<g clip-path="url(#clip0_1_5701)">
<path d="M9.96457 1.22375C7.30423 2.14665 5.00996 3.89834 3.41875 6.22152C1.82754 8.5447 1.02325 11.3169 1.12404 14.131C1.22482 16.9451 2.22536 19.6526 3.9787 21.856C5.73203 24.0594 8.14573 25.6425 10.8653 26.3727C13.0701 26.9416 15.38 26.9666 17.5966 26.4455C19.6046 25.9945 21.4611 25.0297 22.9842 23.6457C24.5694 22.1611 25.7201 20.2726 26.3124 18.1832C26.9561 15.9109 27.0706 13.5215 26.6473 11.1981H14.2663V16.3339H21.4366C21.2933 17.1531 20.9862 17.9349 20.5337 18.6326C20.0812 19.3303 19.4926 19.9295 18.8031 20.3944C17.9277 20.9738 16.9406 21.3635 15.9055 21.5385C14.8674 21.7315 13.8026 21.7315 12.7644 21.5385C11.7122 21.3212 10.7168 20.8869 9.84184 20.2633C8.43597 19.2682 7.38036 17.8544 6.82563 16.2237C6.26168 14.5624 6.26168 12.7615 6.82563 11.1003C7.2205 9.93586 7.87326 8.87565 8.73521 7.99879C9.72159 6.97691 10.9704 6.24647 12.3446 5.8876C13.7188 5.52873 15.1653 5.55531 16.5254 5.96441C17.5879 6.29042 18.5595 6.86028 19.3627 7.62852C20.1712 6.8242 20.9783 6.0178 21.784 5.20931C22.2 4.77456 22.6535 4.36061 23.0633 3.91546C21.8371 2.77454 20.3979 1.88671 18.8281 1.3028C15.9693 0.264785 12.8414 0.23689 9.96457 1.22375Z" fill="white"/>
<path d="M9.96464 1.22354C12.8412 0.236009 15.9692 0.263171 18.8281 1.30051C20.3982 1.88838 21.8368 2.78049 23.0612 3.92565C22.6452 4.37081 22.2063 4.78684 21.782 5.21951C20.9749 6.02522 20.1685 6.82815 19.3627 7.62831C18.5596 6.86007 17.588 6.29021 16.5254 5.9642C15.1658 5.55366 13.7193 5.52555 12.3448 5.88295C10.9702 6.24035 9.72066 6.96945 8.73319 7.99026C7.87125 8.86712 7.21848 9.92733 6.82362 11.0918L2.51147 7.75312C4.05496 4.69232 6.72741 2.35103 9.96464 1.22354Z" fill="#E33629"/>
<path d="M1.36743 11.0601C1.59903 9.9114 1.98383 8.79899 2.51151 7.75269L6.82365 11.0996C6.2597 12.7609 6.2597 14.5618 6.82365 16.223C5.38696 17.3325 3.94958 18.4474 2.51151 19.5679C1.19093 16.9393 0.788176 13.9442 1.36743 11.0601Z" fill="#F8BD00"/>
<path d="M14.2664 11.1956H26.6475C27.0707 13.519 26.9562 15.9084 26.3126 18.1807C25.7202 20.2702 24.5696 22.1586 22.9843 23.6432C21.5927 22.5573 20.1948 21.4798 18.8032 20.394C19.4932 19.9286 20.082 19.3287 20.5346 18.6303C20.9871 17.9318 21.2939 17.1492 21.4367 16.3294H14.2664C14.2643 14.6195 14.2664 12.9075 14.2664 11.1956Z" fill="#587DBD"/>
<path d="M2.50952 19.5685C3.9476 18.4591 5.38498 17.3441 6.82166 16.2236C7.37749 17.8549 8.43462 19.2687 9.84204 20.2633C10.7198 20.8839 11.7173 21.3147 12.7709 21.528C13.809 21.7211 14.8738 21.7211 15.9119 21.528C16.947 21.353 17.9341 20.9633 18.8095 20.3839C20.2012 21.4698 21.599 22.5473 22.9906 23.6331C21.4677 25.0179 19.6113 25.9834 17.6031 26.4351C15.3865 26.9562 13.0765 26.9312 10.8717 26.3623C9.12793 25.8967 7.49912 25.0759 6.08737 23.9514C4.59326 22.7649 3.37285 21.2699 2.50952 19.5685Z" fill="#319F43"/>
</g>
<defs>
<clipPath id="clip0_1_5701">
<rect width="26.6259" height="26.6259" fill="white" transform="translate(0.689331 0.3479)"/>
</clipPath>
</defs>
</svg>
