<svg width="20" height="20" viewBox="0 0 20 20" fill="none" xmlns="http://www.w3.org/2000/svg">
<path d="M6.76482 13.7818C6.94648 13.7818 7.09843 13.7204 7.22065 13.5977C7.34287 13.4743 7.40398 13.3216 7.40398 13.1393C7.40398 12.9571 7.34287 12.8052 7.22065 12.6835C7.09732 12.5613 6.94454 12.5002 6.76232 12.5002C6.5801 12.5002 6.42787 12.5618 6.30565 12.6852C6.18343 12.8079 6.12232 12.9604 6.12232 13.1427C6.12232 13.3243 6.18398 13.4763 6.30732 13.5985C6.4301 13.7207 6.5826 13.7818 6.76482 13.7818ZM6.76482 10.641C6.94648 10.641 7.09843 10.5796 7.22065 10.4568C7.34287 10.3335 7.40398 10.1807 7.40398 9.9985C7.40398 9.81627 7.34287 9.66433 7.22065 9.54266C7.09732 9.42044 6.94454 9.35933 6.76232 9.35933C6.5801 9.35933 6.42787 9.42072 6.30565 9.5435C6.18343 9.66683 6.12232 9.81961 6.12232 10.0018C6.12232 10.1841 6.18398 10.336 6.30732 10.4577C6.4301 10.5799 6.5826 10.641 6.76482 10.641ZM6.76482 7.50016C6.94648 7.50016 7.09843 7.4385 7.22065 7.31516C7.34287 7.19238 7.40398 7.03989 7.40398 6.85766C7.40398 6.676 7.34287 6.52405 7.22065 6.40183C7.09732 6.27961 6.94454 6.2185 6.76232 6.2185C6.5801 6.2185 6.42787 6.27989 6.30565 6.40266C6.18343 6.526 6.12232 6.67877 6.12232 6.861C6.12232 7.04322 6.18398 7.19516 6.30732 7.31683C6.4301 7.43905 6.5826 7.50016 6.76482 7.50016ZM9.32732 13.5585H13.8148V12.7252H9.32732V13.5585ZM9.32732 10.4168H13.8148V9.5835H9.32732V10.4168ZM9.32732 7.27516H13.8148V6.44183H9.32732V7.27516ZM4.67982 16.6668C4.29648 16.6668 3.97648 16.5385 3.71982 16.2818C3.4626 16.0246 3.33398 15.7043 3.33398 15.321V4.67933C3.33398 4.296 3.4626 3.976 3.71982 3.71933C3.97648 3.46211 4.29648 3.3335 4.67982 3.3335H15.3215C15.7048 3.3335 16.0248 3.46211 16.2815 3.71933C16.5387 3.976 16.6673 4.296 16.6673 4.67933V15.321C16.6673 15.7043 16.539 16.0243 16.2823 16.281C16.0251 16.5382 15.7048 16.6668 15.3215 16.6668H4.67982ZM4.67982 15.8335H15.3215C15.4493 15.8335 15.5668 15.7802 15.674 15.6735C15.7807 15.5663 15.834 15.4488 15.834 15.321V4.67933C15.834 4.55155 15.7807 4.43405 15.674 4.32683C15.5668 4.22016 15.4493 4.16683 15.3215 4.16683H4.67982C4.55204 4.16683 4.43454 4.22016 4.32732 4.32683C4.22065 4.43405 4.16732 4.55155 4.16732 4.67933V15.321C4.16732 15.4488 4.22065 15.5663 4.32732 15.6735C4.43454 15.7802 4.55204 15.8335 4.67982 15.8335Z" fill="#848484"/>
</svg>
