<svg width="20" height="20" viewBox="0 0 20 20" fill="none" xmlns="http://www.w3.org/2000/svg">
<g clip-path="url(#clip0_302_1277)">
<path d="M18.062 15.4613C17.5263 14.9837 17.0572 14.4362 16.6675 13.8336C16.2421 13.0016 15.9871 12.0931 15.9175 11.1613V8.41688C15.9212 6.95334 15.3903 5.53881 14.4246 4.43909C13.4589 3.33937 12.1248 2.63014 10.6731 2.44466V1.72799C10.6731 1.53129 10.595 1.34265 10.4559 1.20356C10.3168 1.06447 10.1281 0.986328 9.93142 0.986328C9.73472 0.986328 9.54608 1.06447 9.40699 1.20356C9.2679 1.34265 9.18976 1.53129 9.18976 1.72799V2.45577C7.75101 2.65462 6.43307 3.36814 5.48005 4.46417C4.52703 5.56019 4.0035 6.96446 4.00642 8.41688V11.1613C3.93684 12.0931 3.68186 13.0016 3.25642 13.8336C2.87358 14.4349 2.41209 14.9823 1.8842 15.4613C1.82494 15.5134 1.77745 15.5775 1.74488 15.6493C1.71231 15.7212 1.69541 15.7991 1.69531 15.878V16.6336C1.69531 16.7809 1.75384 16.9222 1.85803 17.0264C1.96222 17.1306 2.10353 17.1891 2.25087 17.1891H17.6953C17.8427 17.1891 17.984 17.1306 18.0882 17.0264C18.1923 16.9222 18.2509 16.7809 18.2509 16.6336V15.878C18.2508 15.7991 18.2339 15.7212 18.2013 15.6493C18.1687 15.5775 18.1212 15.5134 18.062 15.4613ZM2.85087 16.078C3.36776 15.5787 3.82287 15.0191 4.20642 14.4113C4.74232 13.4066 5.055 12.298 5.12309 11.1613V8.41688C5.10106 7.76579 5.21027 7.11693 5.44423 6.50892C5.67818 5.90092 6.0321 5.34621 6.48489 4.87783C6.93769 4.40945 7.48011 4.03698 8.07986 3.78259C8.6796 3.52821 9.3244 3.39711 9.97587 3.39711C10.6273 3.39711 11.2721 3.52821 11.8719 3.78259C12.4716 4.03698 13.014 4.40945 13.4668 4.87783C13.9196 5.34621 14.2736 5.90092 14.5075 6.50892C14.7415 7.11693 14.8507 7.76579 14.8286 8.41688V11.1613C14.8967 12.298 15.2094 13.4066 15.7453 14.4113C16.1289 15.0191 16.584 15.5787 17.1009 16.078H2.85087Z" fill="white"/>
<path d="M10.0006 19.0445C10.3506 19.0364 10.6864 18.9049 10.9487 18.6731C11.211 18.4413 11.3829 18.1241 11.4339 17.7778H8.51172C8.5642 18.1336 8.74412 18.4581 9.018 18.6911C9.29188 18.9241 9.64107 19.0497 10.0006 19.0445Z" fill="white"/>
</g>
<defs>
<clipPath id="clip0_302_1277">
<rect width="20" height="20" fill="white"/>
</clipPath>
</defs>
</svg>
