<svg width="20" height="20" viewBox="0 0 20 20" fill="none" xmlns="http://www.w3.org/2000/svg">
<path d="M14.1673 14.9998C14.6093 14.9998 15.0333 15.1754 15.3458 15.488C15.6584 15.8006 15.834 16.2245 15.834 16.6665C15.834 17.1085 15.6584 17.5325 15.3458 17.845C15.0333 18.1576 14.6093 18.3332 14.1673 18.3332C13.7253 18.3332 13.3014 18.1576 12.9888 17.845C12.6762 17.5325 12.5007 17.1085 12.5007 16.6665C12.5007 15.7415 13.2423 14.9998 14.1673 14.9998ZM0.833984 1.6665H3.55898L4.34232 3.33317H16.6673C16.8883 3.33317 17.1003 3.42097 17.2566 3.57725C17.4129 3.73353 17.5007 3.94549 17.5007 4.1665C17.5007 4.30817 17.459 4.44984 17.4007 4.58317L14.4173 9.97484C14.134 10.4832 13.584 10.8332 12.959 10.8332H6.75065L6.00065 12.1915L5.97565 12.2915C5.97565 12.3468 5.9976 12.3997 6.03667 12.4388C6.07574 12.4779 6.12873 12.4998 6.18398 12.4998H15.834V14.1665H5.83398C5.39196 14.1665 4.96803 13.9909 4.65547 13.6783C4.34291 13.3658 4.16732 12.9419 4.16732 12.4998C4.16732 12.2082 4.24232 11.9332 4.36732 11.6998L5.50065 9.65817L2.50065 3.33317H0.833984V1.6665ZM5.83398 14.9998C6.27601 14.9998 6.69993 15.1754 7.0125 15.488C7.32506 15.8006 7.50065 16.2245 7.50065 16.6665C7.50065 17.1085 7.32506 17.5325 7.0125 17.845C6.69993 18.1576 6.27601 18.3332 5.83398 18.3332C5.39196 18.3332 4.96803 18.1576 4.65547 17.845C4.34291 17.5325 4.16732 17.1085 4.16732 16.6665C4.16732 15.7415 4.90898 14.9998 5.83398 14.9998ZM13.334 9.1665L15.6507 4.99984H5.11732L7.08398 9.1665H13.334Z" fill="#848484"/>
</svg>
