<svg width="35" height="35" viewBox="0 0 35 35" fill="none" xmlns="http://www.w3.org/2000/svg">
<g clip-path="url(#clip0_645_2596)">
<path d="M33.25 5.25H1.75C1.28587 5.25 0.840752 5.43437 0.512563 5.76256C0.184374 6.09075 0 6.53587 0 7L0 28C0 28.4641 0.184374 28.9093 0.512563 29.2374C0.840752 29.5656 1.28587 29.75 1.75 29.75H33.25C33.7141 29.75 34.1592 29.5656 34.4874 29.2374C34.8156 28.9093 35 28.4641 35 28V7C35 6.53587 34.8156 6.09075 34.4874 5.76256C34.1592 5.43437 33.7141 5.25 33.25 5.25ZM22.75 12.25H29.75V14H22.75V12.25ZM19.25 25.9053C18.9662 25.6884 18.6549 25.5101 18.3242 25.375C16.2592 24.486 13.1425 23.17 13.1425 21.567C13.1425 20.6028 13.7708 20.9177 14.049 19.1537C14.1645 18.4222 14.7227 19.1415 14.8277 17.472C14.8277 16.807 14.5232 16.6407 14.5232 16.6407C14.5232 16.6407 14.6772 15.6572 14.7385 14.8977C14.8015 14.105 14.3518 11.7477 12.5037 11.228C12.1783 10.899 11.9595 11.0338 12.9552 10.507C10.7782 10.4038 10.2708 11.543 9.11225 12.3812C8.12525 13.1162 7.8575 14.28 7.9065 14.8995C7.97125 15.6572 8.12525 16.6425 8.12525 16.6425C8.12525 16.6425 7.819 16.807 7.819 17.472C7.92575 19.1415 8.484 18.4222 8.59775 19.1537C8.87425 20.9177 9.506 20.6028 9.506 21.567C9.506 23.17 6.38925 24.486 4.32425 25.375C4.03395 25.4966 3.75761 25.6492 3.5 25.83V8.75H19.25V25.9053ZM31.5 19.25H22.75V17.5H31.5V19.25Z" fill="#58B310"/>
</g>
<defs>
<clipPath id="clip0_645_2596">
<rect width="35" height="35" fill="white"/>
</clipPath>
</defs>
</svg>
