<svg width="70" height="70" viewBox="0 0 70 70" fill="none" xmlns="http://www.w3.org/2000/svg">
<path d="M61.25 20.7812H55.7812V17.5C55.7812 16.0496 55.2051 14.6586 54.1795 13.633C53.1539 12.6074 51.7629 12.0313 50.3125 12.0312H10.9375C9.4871 12.0313 8.0961 12.6074 7.07051 13.633C6.04492 14.6586 5.46875 16.0496 5.46875 17.5V43.75C5.46875 45.2004 6.04492 46.5914 7.07051 47.617C8.0961 48.6426 9.4871 49.2188 10.9375 49.2188H42.6562V52.5C42.6562 53.9504 43.2324 55.3414 44.258 56.367C45.2836 57.3926 46.6746 57.9688 48.125 57.9688H61.25C62.7004 57.9688 64.0914 57.3926 65.117 56.367C66.1426 55.3414 66.7188 53.9504 66.7188 52.5V26.25C66.7188 24.7996 66.1426 23.4086 65.117 22.383C64.0914 21.3574 62.7004 20.7812 61.25 20.7812ZM10.9375 47.0312C10.0673 47.0312 9.23266 46.6855 8.61731 46.0702C8.00195 45.4548 7.65625 44.6202 7.65625 43.75V17.5C7.65625 16.6298 8.00195 15.7952 8.61731 15.1798C9.23266 14.5645 10.0673 14.2188 10.9375 14.2188H50.3125C51.1827 14.2188 52.0173 14.5645 52.6327 15.1798C53.248 15.7952 53.5938 16.6298 53.5938 17.5V20.7812H48.125C46.6746 20.7812 45.2836 21.3574 44.258 22.383C43.2324 23.4086 42.6562 24.7996 42.6562 26.25V47.0312H10.9375ZM64.5312 52.5C64.5312 53.3702 64.1855 54.2048 63.5702 54.8202C62.9548 55.4355 62.1202 55.7812 61.25 55.7812H48.125C47.2548 55.7812 46.4202 55.4355 45.8048 54.8202C45.1895 54.2048 44.8438 53.3702 44.8438 52.5V26.25C44.8438 25.3798 45.1895 24.5452 45.8048 23.9298C46.4202 23.3145 47.2548 22.9688 48.125 22.9688H61.25C62.1202 22.9688 62.9548 23.3145 63.5702 23.9298C64.1855 24.5452 64.5312 25.3798 64.5312 26.25V52.5ZM36.0938 56.875C36.0938 57.1651 35.9785 57.4433 35.7734 57.6484C35.5683 57.8535 35.2901 57.9688 35 57.9688H24.0625C23.7724 57.9688 23.4942 57.8535 23.2891 57.6484C23.084 57.4433 22.9688 57.1651 22.9688 56.875C22.9688 56.5849 23.084 56.3067 23.2891 56.1016C23.4942 55.8965 23.7724 55.7812 24.0625 55.7812H35C35.2901 55.7812 35.5683 55.8965 35.7734 56.1016C35.9785 56.3067 36.0938 56.5849 36.0938 56.875ZM57.9688 30.625C57.9688 30.9151 57.8535 31.1933 57.6484 31.3984C57.4433 31.6035 57.1651 31.7188 56.875 31.7188H52.5C52.2099 31.7188 51.9317 31.6035 51.7266 31.3984C51.5215 31.1933 51.4062 30.9151 51.4062 30.625C51.4062 30.3349 51.5215 30.0567 51.7266 29.8516C51.9317 29.6465 52.2099 29.5312 52.5 29.5312H56.875C57.1651 29.5312 57.4433 29.6465 57.6484 29.8516C57.8535 30.0567 57.9688 30.3349 57.9688 30.625Z" fill="#58B310"/>
</svg>
