<svg width="35" height="35" viewBox="0 0 35 35" fill="none" xmlns="http://www.w3.org/2000/svg">
<path d="M22.9688 6.56256C22.9687 5.52781 22.675 4.51432 22.1219 3.6398C21.5688 2.76528 20.779 2.06562 19.8441 1.62209C18.9092 1.17856 17.8677 1.00937 16.8405 1.13415C15.8133 1.25894 14.8426 1.67259 14.0411 2.32705C13.2396 2.98152 12.6402 3.84994 12.3126 4.83145C11.985 5.81296 11.9425 6.86729 12.1902 7.87196C12.4379 8.87663 12.9655 9.79042 13.7118 10.5072C14.4581 11.224 15.3924 11.7143 16.4063 11.9213V31.2786C16.4064 31.5692 16.4642 31.8568 16.5765 32.1249L17.2648 33.7655C17.2879 33.8077 17.3219 33.8429 17.3633 33.8675C17.4047 33.892 17.4519 33.905 17.5 33.905C17.5481 33.905 17.5953 33.892 17.6367 33.8675C17.6781 33.8429 17.7121 33.8077 17.7352 33.7655L18.4235 32.1249C18.5358 31.8568 18.5936 31.5692 18.5938 31.2786V11.9213C19.8281 11.6676 20.9373 10.9961 21.7342 10.0199C22.5312 9.04379 22.9672 7.82271 22.9688 6.56256ZM19.1406 6.56256C18.8161 6.56256 18.4989 6.46634 18.2291 6.28606C17.9593 6.10579 17.7491 5.84956 17.6249 5.54977C17.5007 5.24999 17.4682 4.92011 17.5315 4.60186C17.5948 4.28361 17.7511 3.99128 17.9805 3.76184C18.21 3.53239 18.5023 3.37614 18.8206 3.31283C19.1388 3.24953 19.4687 3.28202 19.7685 3.40619C20.0682 3.53037 20.3245 3.74065 20.5048 4.01045C20.685 4.28025 20.7812 4.59745 20.7812 4.92193C20.7812 5.35705 20.6084 5.77435 20.3007 6.08203C19.993 6.38971 19.5757 6.56256 19.1406 6.56256Z" fill="#58B310"/>
</svg>
