<svg width="57" height="65" viewBox="0 0 57 65" fill="none" xmlns="http://www.w3.org/2000/svg">
<path d="M24.7917 64.2402C17.6776 62.127 11.7666 57.8168 7.05854 51.3096C2.35285 44.8 0 37.4675 0 29.3123V10.1589L24.7917 0.897461L49.5833 10.1589V29.3123C49.5833 29.5625 49.5798 29.8128 49.5727 30.0631C49.5656 30.311 49.555 30.5601 49.5408 30.8104C49.1017 30.7395 48.6684 30.6852 48.241 30.6475C47.816 30.612 47.3781 30.5943 46.9271 30.5943C46.7665 30.5943 46.6131 30.6002 46.4667 30.612C46.3179 30.6262 46.1621 30.6475 45.9992 30.6758L46.0346 30.01C46.0393 29.7951 46.0417 29.5625 46.0417 29.3123V12.5779L24.7917 4.67996L3.54167 12.5779V29.3123C3.54167 36.4546 5.54861 42.9477 9.5625 48.7914C13.5764 54.6352 18.6528 58.531 24.7917 60.4789C25.5614 60.2428 26.3134 59.9559 27.0477 59.6183C27.782 59.2783 28.5057 58.9064 29.2188 58.5027V62.5366C28.5175 62.9144 27.7974 63.245 27.0583 63.5283C26.3193 63.8116 25.5638 64.0513 24.7917 64.2402ZM40.2688 64.3748C39.4424 64.3748 38.7104 64.056 38.0729 63.4185C37.4354 62.7857 37.1167 62.0561 37.1167 61.2298V51.3131C37.1167 50.4867 37.4354 49.7784 38.0729 49.1881C38.7104 48.5978 39.4424 48.3027 40.2688 48.3027H40.6583V44.761C40.6583 42.9925 41.2616 41.505 42.4681 40.2985C43.6723 39.0943 45.1586 38.4923 46.9271 38.4923C48.6956 38.4923 50.1819 39.0943 51.386 40.2985C52.5902 41.505 53.1923 42.9925 53.1923 44.761V48.3027H53.589C54.4342 48.3027 55.1579 48.5978 55.76 49.1881C56.3644 49.7784 56.6667 50.4867 56.6667 51.3131V61.2298C56.6667 62.0561 56.3644 62.7869 55.76 63.4221C55.1579 64.0572 54.4342 64.3748 53.589 64.3748H40.2688ZM43.3854 48.3027H50.4688V44.761C50.4688 43.7575 50.1287 42.9158 49.4487 42.2358C48.7687 41.5558 47.9282 41.217 46.9271 41.2193C45.9236 41.2193 45.0831 41.5582 44.4054 42.2358C43.7278 42.9134 43.3878 43.7552 43.3854 44.761V48.3027Z" fill="#58B310"/>
</svg>
