<svg width="28" height="28" viewBox="0 0 28 28" fill="none" xmlns="http://www.w3.org/2000/svg">
<path d="M10.4987 25.6663H17.4987C23.332 25.6663 25.6654 23.333 25.6654 17.4997V10.4997C25.6654 4.66634 23.332 2.33301 17.4987 2.33301H10.4987C4.66536 2.33301 2.33203 4.66634 2.33203 10.4997V17.4997C2.33203 23.333 4.66536 25.6663 10.4987 25.6663Z" stroke="#58B310" stroke-width="1.5" stroke-linecap="round" stroke-linejoin="round"/>
<path d="M11.668 19.8337H16.3346C18.2596 19.8337 19.8346 18.2587 19.8346 16.3337V11.667C19.8346 9.74199 18.2596 8.16699 16.3346 8.16699H11.668C9.74297 8.16699 8.16797 9.74199 8.16797 11.667V16.3337C8.16797 18.2587 9.74297 19.8337 11.668 19.8337Z" stroke="#58B310" stroke-width="1.5" stroke-linecap="round" stroke-linejoin="round"/>
<path d="M14 8.16699V19.8337" stroke="#58B310" stroke-width="1.5" stroke-linecap="round" stroke-linejoin="round"/>
<path d="M8.16797 14H19.8346" stroke="#58B310" stroke-width="1.5" stroke-linecap="round" stroke-linejoin="round"/>
</svg>
