<svg width="59" height="60" viewBox="0 0 59 60" fill="none" xmlns="http://www.w3.org/2000/svg">
<path d="M34.4167 37.5V42.5C34.4167 43.163 34.1577 43.7989 33.6966 44.2678C33.2356 44.7366 32.6103 45 31.9583 45H14.75L7.375 52.5V27.5C7.375 26.837 7.634 26.2011 8.09503 25.7322C8.55606 25.2634 9.18134 25 9.83333 25H14.75M51.625 35L44.25 27.5H27.0417C26.3897 27.5 25.7644 27.2366 25.3034 26.7678C24.8423 26.2989 24.5833 25.663 24.5833 25V10C24.5833 9.33696 24.8423 8.70107 25.3034 8.23223C25.7644 7.76339 26.3897 7.5 27.0417 7.5H49.1667C49.8187 7.5 50.4439 7.76339 50.905 8.23223C51.366 8.70107 51.625 9.33696 51.625 10V35Z" stroke="#58B310" stroke-width="2" stroke-linecap="round" stroke-linejoin="round"/>
</svg>
