<svg width="32" height="32" viewBox="0 0 32 32" fill="none" xmlns="http://www.w3.org/2000/svg">
<path d="M28.1075 11.4399V20.5598C28.1075 22.0532 27.3075 23.4399 26.0142 24.1999L18.0942 28.7732C16.8009 29.5199 15.2009 29.5199 13.8942 28.7732L5.97419 24.1999C4.68086 23.4532 3.88086 22.0665 3.88086 20.5598V11.4399C3.88086 9.94655 4.68086 8.55983 5.97419 7.79983L13.8942 3.2265C15.1875 2.47984 16.7875 2.47984 18.0942 3.2265L26.0142 7.79983C27.3075 8.55983 28.1075 9.93322 28.1075 11.4399Z" stroke="#58B310" stroke-width="1.5" stroke-linecap="round" stroke-linejoin="round"/>
<path d="M15.9992 14.6664C17.715 14.6664 19.1059 13.2755 19.1059 11.5597C19.1059 9.84397 17.715 8.45312 15.9992 8.45312C14.2835 8.45312 12.8926 9.84397 12.8926 11.5597C12.8926 13.2755 14.2835 14.6664 15.9992 14.6664Z" stroke="#58B310" stroke-width="1.5" stroke-linecap="round" stroke-linejoin="round"/>
<path d="M21.3327 22.2128C21.3327 19.8128 18.946 17.8662 15.9993 17.8662C13.0527 17.8662 10.666 19.8128 10.666 22.2128" stroke="#58B310" stroke-width="1.5" stroke-linecap="round" stroke-linejoin="round"/>
</svg>
